<svg height="496pt" viewBox="-4 0 496 496" width="496pt" xmlns="http://www.w3.org/2000/svg"><path d="m168 352h64c4.425781 0 8-3.574219 8-8v-32c0-4.425781-3.574219-8-8-8h-64c-4.425781 0-8 3.574219-8 8v32c0 4.425781 3.574219 8 8 8zm8-32h48v16h-48zm0 0"/><path d="m160 368h16v32h-16zm0 0"/><path d="m72 416h32c4.425781 0 8-3.574219 8-8v-160c0-4.414062-3.574219-8-8-8h-32c-4.425781 0-8 3.585938-8 8v160c0 4.425781 3.574219 8 8 8zm8-16v-64h16v64zm16-144v64h-16v-64zm0 0"/><path d="m296 416h32c4.425781 0 8-3.574219 8-8v-160c0-4.414062-3.574219-8-8-8h-32c-4.425781 0-8 3.585938-8 8v160c0 4.425781 3.574219 8 8 8zm8-16v-64h16v64zm16-144v64h-16v-64zm0 0"/><path d="m232 88c0-13.230469-10.769531-24-24-24-4.414062 0-8-3.59375-8-8s3.585938-8 8-8h24v-16h-24c-13.230469 0-24 10.769531-24 24s10.769531 24 24 24c4.414062 0 8 3.59375 8 8s-3.585938 8-8 8h-24v16h24c13.230469 0 24-10.769531 24-24zm0 0"/><path d="m280 112c17.648438 0 32-14.351562 32-32v-16c0-17.648438-14.351562-32-32-32s-32 14.351562-32 32v16c0 17.648438 14.351562 32 32 32zm-16-48c0-8.824219 7.175781-16 16-16s16 7.175781 16 16v16c0 8.824219-7.175781 16-16 16s-16-7.175781-16-16zm0 0"/><path d="m400 112h16c22.054688 0 40-17.945312 40-40s-17.945312-40-40-40h-16c-4.425781 0-8 3.585938-8 8v64c0 4.414062 3.574219 8 8 8zm8-64h8c13.230469 0 24 10.769531 24 24s-10.769531 24-24 24h-8zm0 0"/><path d="m336 112h40v-16h-32v-64h-16v72c0 4.414062 3.574219 8 8 8zm0 0"/><path d="m480 0h-320c-4.425781 0-8 3.585938-8 8v88h-144c-4.425781 0-8 3.585938-8 8v96c0 4.414062 3.574219 8 8 8h24v240h-24c-4.425781 0-8 3.574219-8 8v32c0 4.425781 3.574219 8 8 8h384c4.425781 0 8-3.574219 8-8v-32c0-4.425781-3.574219-8-8-8h-24v-240h24c4.425781 0 8-3.585938 8-8v-56h80c4.425781 0 8-3.585938 8-8v-128c0-4.414062-3.574219-8-8-8zm-96 480h-368v-16h368zm-128-32h-112v-160h112zm96 0h-80v-168c0-4.425781-3.574219-8-8-8h-128c-4.425781 0-8 3.574219-8 8v168h-80v-240h304zm32-256h-368v-80h136v24c0 4.414062 3.574219 8 8 8h17.472656c-.898437 2.511719-1.472656 5.183594-1.472656 8 0 13.230469 10.769531 24 24 24s24-10.769531 24-24c0-2.816406-.574219-5.488281-1.472656-8h161.472656zm-176-40c0 4.40625-3.585938 8-8 8s-8-3.59375-8-8 3.585938-8 8-8 8 3.59375 8 8zm264-24h-304v-112h304zm0 0"/><path d="m458.34375 226.34375-26.34375 26.34375-26.34375-26.34375-11.3125 11.3125 26.34375 26.34375-26.34375 26.34375 11.3125 11.3125 26.34375-26.34375 26.34375 26.34375 11.3125-11.3125-26.34375-26.34375 26.34375-26.34375zm0 0"/><path d="m458.34375 322.34375-26.34375 26.34375-26.34375-26.34375-11.3125 11.3125 26.34375 26.34375-26.34375 26.34375 11.3125 11.3125 26.34375-26.34375 26.34375 26.34375 11.3125-11.3125-26.34375-26.34375 26.34375-26.34375zm0 0"/></svg>